<svg xmlns="http://www.w3.org/2000/svg" xmlns:xlink="http://www.w3.org/1999/xlink" width="1200" zoomAndPan="magnify" viewBox="0 0 900 1349.999938" height="1800" preserveAspectRatio="xMidYMid meet" version="1.0"><defs><clipPath id="6f83c92173"><path d="M 203 682.164062 L 696 682.164062 L 696 1183 L 203 1183 Z M 203 682.164062 " clip-rule="nonzero"/></clipPath><clipPath id="df1669ac8d"><path d="M 475.945312 1181.964844 L 423.652344 1182.410156 L 423.578125 1118.296875 L 372.09375 1118.371094 L 371.800781 1182.113281 L 319.652344 1182.113281 L 319.355469 1118.371094 L 267.871094 1118.222656 L 267.796875 1182.261719 L 203.390625 1182.039062 C 221.558594 1158.183594 235.003906 1133.808594 247.929688 1106.996094 C 275.480469 1049.824219 296.238281 991.25 315.515625 930.386719 C 340.851562 848.621094 361.308594 767.074219 379.628906 682.277344 L 519.820312 682.203125 C 538.804688 769.953125 560.226562 855.339844 587.1875 940.507812 C 605.800781 998.046875 625.667969 1053.445312 651.890625 1107.585938 C 664.742188 1134.101562 678.039062 1158.257812 695.988281 1181.890625 L 631.355469 1181.964844 L 631.0625 1118.222656 L 580.464844 1118 L 579.800781 1182.039062 L 527.800781 1182.039062 L 527.132812 1118 L 476.242188 1118.148438 Z M 475.945312 1181.964844 " clip-rule="nonzero"/></clipPath><clipPath id="0cc669989c"><path d="M 0.28125 0.164062 L 493 0.164062 L 493 500.480469 L 0.28125 500.480469 Z M 0.28125 0.164062 " clip-rule="nonzero"/></clipPath><clipPath id="2872db416c"><path d="M 272.945312 499.964844 L 220.652344 500.410156 L 220.578125 436.296875 L 169.09375 436.371094 L 168.800781 500.113281 L 116.652344 500.113281 L 116.355469 436.371094 L 64.871094 436.222656 L 64.796875 500.261719 L 0.390625 500.039062 C 18.558594 476.183594 32.003906 451.808594 44.929688 424.996094 C 72.480469 367.824219 93.238281 309.25 112.515625 248.386719 C 137.851562 166.621094 158.308594 85.074219 176.628906 0.277344 L 316.820312 0.203125 C 335.804688 87.953125 357.226562 173.339844 384.1875 258.507812 C 402.800781 316.046875 422.667969 371.445312 448.890625 425.585938 C 461.742188 452.101562 475.039062 476.257812 492.988281 499.890625 L 428.355469 499.964844 L 428.0625 436.222656 L 377.464844 436 L 376.800781 500.039062 L 324.800781 500.039062 L 324.132812 436 L 273.242188 436.148438 Z M 272.945312 499.964844 " clip-rule="nonzero"/></clipPath><clipPath id="eb24852d5c"><rect x="0" width="493" y="0" height="501"/></clipPath><clipPath id="281105ed9e"><path d="M 89 1213 L 810 1213 L 810 1314 L 89 1314 Z M 89 1213 " clip-rule="nonzero"/></clipPath><clipPath id="3abc76fdea"><path d="M 707.730469 1213.800781 C 764.679688 1212.472656 810.402344 1257.382812 809.664062 1313.074219 L 89.785156 1313.074219 C 88.679688 1258.859375 133.144531 1214.023438 188.320312 1213.800781 Z M 707.730469 1213.800781 " clip-rule="nonzero"/></clipPath><clipPath id="c0cb518980"><path d="M 0 0 L 721 0 L 721 100.28125 L 0 100.28125 Z M 0 0 " clip-rule="nonzero"/></clipPath><clipPath id="41abdf1ef9"><path d="M 618.730469 0.800781 C 675.679688 -0.527344 721.402344 44.382812 720.664062 100.074219 L 0.785156 100.074219 C -0.320312 45.859375 44.144531 1.023438 99.320312 0.800781 Z M 618.730469 0.800781 " clip-rule="nonzero"/></clipPath><clipPath id="0b022606c2"><rect x="0" width="721" y="0" height="101"/></clipPath><clipPath id="0ffa372728"><path d="M 295 185 L 606 185 L 606 449 L 295 449 Z M 295 185 " clip-rule="nonzero"/></clipPath><clipPath id="b9b32aeeb8"><path d="M 603.953125 185.324219 C 601.074219 204.824219 608.828125 226.835938 602.917969 246.558594 L 542.351562 448.5 L 357.246094 448.351562 L 295.71875 246.851562 L 418.480469 246.558594 L 418.851562 185.398438 L 480.601562 185.175781 L 481.042969 246.484375 L 541.539062 246.484375 L 541.832031 185.175781 Z M 603.953125 185.324219 " clip-rule="nonzero"/></clipPath><clipPath id="42b77e8628"><path d="M 0.679688 0.0390625 L 311 0.0390625 L 311 263.558594 L 0.679688 263.558594 Z M 0.679688 0.0390625 " clip-rule="nonzero"/></clipPath><clipPath id="99e5561909"><path d="M 308.953125 0.324219 C 306.074219 19.824219 313.828125 41.835938 307.917969 61.558594 L 247.351562 263.5 L 62.246094 263.351562 L 0.71875 61.851562 L 123.480469 61.558594 L 123.851562 0.398438 L 185.601562 0.175781 L 186.042969 61.484375 L 246.539062 61.484375 L 246.832031 0.175781 Z M 308.953125 0.324219 " clip-rule="nonzero"/></clipPath><clipPath id="6d494b6a9e"><rect x="0" width="311" y="0" height="264"/></clipPath><clipPath id="f56b469098"><path d="M 271 480 L 628 480 L 628 651 L 271 651 Z M 271 480 " clip-rule="nonzero"/></clipPath><clipPath id="90d0e08176"><path d="M 601.21875 650.222656 L 299.929688 650.515625 C 282.71875 650.515625 271.714844 634.488281 271.933594 620.085938 C 272.230469 603.023438 285.675781 590.097656 303.105469 590.320312 L 356.953125 589.949219 L 357.175781 480.039062 L 542.203125 480.113281 L 542.425781 590.246094 L 599.078125 590.390625 C 614.886719 591.722656 626.40625 603.246094 627.367188 618.609375 C 628.179688 631.902344 618.875 650.296875 601.21875 650.296875 " clip-rule="nonzero"/></clipPath><clipPath id="cf340c6b92"><path d="M 0.679688 0 L 357 0 L 357 170.640625 L 0.679688 170.640625 Z M 0.679688 0 " clip-rule="nonzero"/></clipPath><clipPath id="7acf83dc65"><path d="M 330.21875 170.222656 L 28.929688 170.515625 C 11.71875 170.515625 0.714844 154.488281 0.933594 140.085938 C 1.230469 123.023438 14.675781 110.097656 32.105469 110.320312 L 85.953125 109.949219 L 86.175781 0.0390625 L 271.203125 0.113281 L 271.425781 110.246094 L 328.078125 110.390625 C 343.886719 111.722656 355.40625 123.246094 356.367188 138.609375 C 357.179688 151.902344 347.875 170.296875 330.21875 170.296875 " clip-rule="nonzero"/></clipPath><clipPath id="508eeef947"><rect x="0" width="357" y="0" height="171"/></clipPath><clipPath id="5f632471ed"><path d="M 339 104 L 409 104 L 409 172 L 339 172 Z M 339 104 " clip-rule="nonzero"/></clipPath><clipPath id="f39971a1ea"><path d="M 408.140625 171.4375 L 340.039062 171.808594 L 339.964844 104.589844 L 407.917969 104.296875 Z M 408.140625 171.4375 " clip-rule="nonzero"/></clipPath><clipPath id="c8b7196124"><path d="M 0.839844 0.160156 L 69.238281 0.160156 L 69.238281 67.839844 L 0.839844 67.839844 Z M 0.839844 0.160156 " clip-rule="nonzero"/></clipPath><clipPath id="1fb15e941c"><path d="M 69.140625 67.4375 L 1.039062 67.808594 L 0.964844 0.589844 L 68.917969 0.296875 Z M 69.140625 67.4375 " clip-rule="nonzero"/></clipPath><clipPath id="903bb3b21e"><rect x="0" width="70" y="0" height="68"/></clipPath><clipPath id="ecb25d7689"><path d="M 221 149 L 281 149 L 281 209 L 221 209 Z M 221 149 " clip-rule="nonzero"/></clipPath><clipPath id="304877114c"><path d="M 280.945312 208.515625 L 221.484375 208.8125 L 221.558594 149.574219 L 280.726562 149.574219 Z M 280.945312 208.515625 " clip-rule="nonzero"/></clipPath><clipPath id="c4a954ca5b"><path d="M 0.28125 0.519531 L 60 0.519531 L 60 60 L 0.28125 60 Z M 0.28125 0.519531 " clip-rule="nonzero"/></clipPath><clipPath id="d20881e5a6"><path d="M 59.945312 59.515625 L 0.484375 59.8125 L 0.558594 0.574219 L 59.726562 0.574219 Z M 59.945312 59.515625 " clip-rule="nonzero"/></clipPath><clipPath id="68a0f84e41"><rect x="0" width="60" y="0" height="60"/></clipPath><clipPath id="4beb73b403"><path d="M 251 36 L 297 36 L 297 83 L 251 83 Z M 251 36 " clip-rule="nonzero"/></clipPath><clipPath id="4767f045a5"><path d="M 296.238281 81.398438 L 251.328125 82.136719 L 251.03125 37.152344 L 295.867188 36.933594 Z M 296.238281 81.398438 " clip-rule="nonzero"/></clipPath><clipPath id="7a08689f64"><path d="M 0 0.71875 L 45.398438 0.71875 L 45.398438 46.320312 L 0 46.320312 Z M 0 0.71875 " clip-rule="nonzero"/></clipPath><clipPath id="f919bb658c"><path d="M 45.238281 45.398438 L 0.328125 46.136719 L 0.03125 1.152344 L 44.867188 0.933594 Z M 45.238281 45.398438 " clip-rule="nonzero"/></clipPath><clipPath id="ab25969adb"><rect x="0" width="46" y="0" height="47"/></clipPath></defs><g clip-path="url(#6f83c92173)"><g clip-path="url(#df1669ac8d)"><g transform="matrix(1, 0, 0, 1, 203, 682)"><g clip-path="url(#eb24852d5c)"><g clip-path="url(#0cc669989c)"><g clip-path="url(#2872db416c)"><rect x="-401" width="1296" fill="#2d5465" height="1943.999911" y="-978.999986" fill-opacity="1"/></g></g></g></g></g></g><g clip-path="url(#281105ed9e)"><g clip-path="url(#3abc76fdea)"><g transform="matrix(1, 0, 0, 1, 89, 1213)"><g clip-path="url(#0b022606c2)"><g clip-path="url(#c0cb518980)"><g clip-path="url(#41abdf1ef9)"><rect x="-287" width="1296" fill="#2d5465" height="1943.999911" y="-1509.999986" fill-opacity="1"/></g></g></g></g></g></g><g clip-path="url(#0ffa372728)"><g clip-path="url(#b9b32aeeb8)"><g transform="matrix(1, 0, 0, 1, 295, 185)"><g clip-path="url(#6d494b6a9e)"><g clip-path="url(#42b77e8628)"><g clip-path="url(#99e5561909)"><rect x="-493" width="1296" fill="#2d5465" height="1943.999911" y="-481.999986" fill-opacity="1"/></g></g></g></g></g></g><g clip-path="url(#f56b469098)"><g clip-path="url(#90d0e08176)"><g transform="matrix(1, 0, 0, 1, 271, 480)"><g clip-path="url(#508eeef947)"><g clip-path="url(#cf340c6b92)"><g clip-path="url(#7acf83dc65)"><rect x="-469" width="1296" fill="#2d5465" height="1943.999911" y="-776.999986" fill-opacity="1"/></g></g></g></g></g></g><g clip-path="url(#5f632471ed)"><g clip-path="url(#f39971a1ea)"><g transform="matrix(1, 0, 0, 1, 339, 104)"><g clip-path="url(#903bb3b21e)"><g clip-path="url(#c8b7196124)"><g clip-path="url(#1fb15e941c)"><rect x="-537" width="1296" fill="#35b454" height="1943.999911" y="-400.999986" fill-opacity="1"/></g></g></g></g></g></g><g clip-path="url(#ecb25d7689)"><g clip-path="url(#304877114c)"><g transform="matrix(1, 0, 0, 1, 221, 149)"><g clip-path="url(#68a0f84e41)"><g clip-path="url(#c4a954ca5b)"><g clip-path="url(#d20881e5a6)"><rect x="-419" width="1296" fill="#fed404" height="1943.999911" y="-445.999986" fill-opacity="1"/></g></g></g></g></g></g><g clip-path="url(#4beb73b403)"><g clip-path="url(#4767f045a5)"><g transform="matrix(1, 0, 0, 1, 251, 36)"><g clip-path="url(#ab25969adb)"><g clip-path="url(#7a08689f64)"><g clip-path="url(#f919bb658c)"><rect x="-449" width="1296" fill="#ec1d25" height="1943.999911" y="-332.999986" fill-opacity="1"/></g></g></g></g></g></g></svg>